<svg width="1920" height="1080" viewBox="0 0 1920 1080" fill="none" xmlns="http://www.w3.org/2000/svg">
    <mask id="298btbocga" style="mask-type:alpha" maskUnits="userSpaceOnUse" x="0" y="0" width="1920" height="1080">
        <path fill="#D9D9D9" d="M0 0h1920v1080H0z"/>
    </mask>
    <g mask="url(#298btbocga)">
        <g opacity=".3">
            <g opacity=".4" stroke="#fff">
                <path d="M-71.5-147.5h2063v2063h-2063z"/>
                <circle cx="960" cy="884" r="1031.5"/>
                <circle cx="960.002" cy="883.998" r="728.092"/>
                <circle cx="960" cy="884" r="515.5"/>
                <circle cx="957.938" cy="881.934" r="257.5"/>
                <path d="M444.5-147.5h515v516h-515zM960.5-147.5h515v517h-515zM-71.5 368.5h516v516h-516zM960.5 369.5h515v515h-515zM1476.5 369.5h515v515h-515zM-71.5 884.5h516v515h-516zM444.5 884.5h516v515h-516zM960.5 884.5h515v515h-515zM1476.5 884.5h515v515h-515z"/>
                <path d="M231.91 155.906h1456.18v1456.18H231.91z"/>
            </g>
            <path opacity=".5" d="m-72-148 2064 2064M1992-148-72 1916" stroke="#fff"/>
            <circle cx="444" cy="368" r="7" fill="#fff"/>
            <circle cx="960" cy="884" r="7" fill="#fff"/>
            <circle cx="1476" cy="369" r="7" fill="#fff"/>
            <circle cx="1689" cy="155" r="7" fill="#fff"/>
            <circle cx="960" cy="156" r="7" fill="#fff"/>
        </g>
        <rect opacity=".3" x="1256.98" y="-478.66" width="1384" height="222.511" rx="111.256" transform="rotate(135 1256.98 -478.66)" fill="url(#aejw6rlavb)"/>
        <mask id="j5top7a0sc" style="mask-type:alpha" maskUnits="userSpaceOnUse" x="-715" y="-230" width="2529" height="1366">
            <path transform="rotate(-15 -714.367 294.375)" fill="#D9D9D9" d="M-714.367 294.375h2025v2.702h-2025z"/>
            <path transform="rotate(-15 -699.73 315.889)" fill="#D9D9D9" d="M-699.73 315.889h2025v2.702h-2025z"/>
            <path transform="rotate(-15 -685.09 337.4)" fill="#D9D9D9" d="M-685.09 337.4h2025v2.702h-2025z"/>
            <path transform="rotate(-15 -670.453 358.912)" fill="#D9D9D9" d="M-670.453 358.912h2025v2.702h-2025z"/>
            <path transform="rotate(-15 -655.812 380.426)" fill="#D9D9D9" d="M-655.812 380.426h2025v2.702h-2025z"/>
            <path transform="rotate(-15 -641.176 401.936)" fill="#D9D9D9" d="M-641.176 401.936h2025v2.702h-2025z"/>
            <path transform="rotate(-15 -626.535 423.449)" fill="#D9D9D9" d="M-626.535 423.449h2025v2.702h-2025z"/>
            <path transform="rotate(-15 -611.898 444.961)" fill="#D9D9D9" d="M-611.898 444.961h2025v2.702h-2025z"/>
            <path transform="rotate(-15 -597.262 466.475)" fill="#D9D9D9" d="M-597.262 466.475h2025v2.702h-2025z"/>
            <path transform="rotate(-15 -582.621 487.986)" fill="#D9D9D9" d="M-582.621 487.986h2025v2.702h-2025z"/>
            <path transform="rotate(-15 -567.984 509.5)" fill="#D9D9D9" d="M-567.984 509.5h2025v2.702h-2025z"/>
            <path transform="rotate(-15 -553.344 531.012)" fill="#D9D9D9" d="M-553.344 531.012h2025v2.702h-2025z"/>
            <path transform="rotate(-15 -538.707 552.525)" fill="#D9D9D9" d="M-538.707 552.525h2025v2.702h-2025z"/>
            <path transform="rotate(-15 -524.066 574.037)" fill="#D9D9D9" d="M-524.066 574.037h2025v2.702h-2025z"/>
            <path transform="rotate(-15 -509.43 595.549)" fill="#D9D9D9" d="M-509.43 595.549h2025v2.702h-2025z"/>
            <path transform="rotate(-15 -494.789 617.061)" fill="#D9D9D9" d="M-494.789 617.061h2025v2.702h-2025z"/>
            <path transform="rotate(-15 -480.152 638.574)" fill="#D9D9D9" d="M-480.152 638.574h2025v2.702h-2025z"/>
            <path transform="rotate(-15 -465.516 660.086)" fill="#D9D9D9" d="M-465.516 660.086h2025v2.702h-2025z"/>
            <path transform="rotate(-15 -450.879 681.6)" fill="#D9D9D9" d="M-450.879 681.6h2025v2.702h-2025z"/>
            <path transform="rotate(-15 -436.238 703.111)" fill="#D9D9D9" d="M-436.238 703.111h2025v2.702h-2025z"/>
            <path transform="rotate(-15 -421.602 724.625)" fill="#D9D9D9" d="M-421.602 724.625h2025v2.702h-2025z"/>
            <path transform="rotate(-15 -406.961 746.137)" fill="#D9D9D9" d="M-406.961 746.137h2025v2.702h-2025z"/>
            <path transform="rotate(-15 -392.324 767.648)" fill="#D9D9D9" d="M-392.324 767.648h2025v2.702h-2025z"/>
            <path transform="rotate(-15 -377.684 789.16)" fill="#D9D9D9" d="M-377.684 789.16h2025v2.702h-2025z"/>
            <path transform="rotate(-15 -363.047 810.672)" fill="#D9D9D9" d="M-363.047 810.672h2025v2.702h-2025z"/>
            <path transform="rotate(-15 -348.41 832.186)" fill="#D9D9D9" d="M-348.41 832.186h2025v2.702h-2025z"/>
            <path transform="rotate(-15 -333.77 853.697)" fill="#D9D9D9" d="M-333.77 853.697h2025v2.702h-2025z"/>
            <path transform="rotate(-15 -319.133 875.211)" fill="#D9D9D9" d="M-319.133 875.211h2025v2.702h-2025z"/>
            <path transform="rotate(-15 -304.492 896.723)" fill="#D9D9D9" d="M-304.492 896.723h2025v2.702h-2025z"/>
            <path transform="rotate(-15 -289.855 918.234)" fill="#D9D9D9" d="M-289.855 918.234h2025v2.702h-2025z"/>
            <path transform="rotate(-15 -275.215 939.748)" fill="#D9D9D9" d="M-275.215 939.748h2025v2.702h-2025z"/>
            <path transform="rotate(-15 -260.578 961.26)" fill="#D9D9D9" d="M-260.578 961.26h2025v2.702h-2025z"/>
            <path transform="rotate(-15 -245.938 982.773)" fill="#D9D9D9" d="M-245.938 982.773h2025v2.702h-2025z"/>
            <path transform="rotate(-15 -231.301 1004.29)" fill="#D9D9D9" d="M-231.301 1004.29h2025v2.702h-2025z"/>
            <path transform="rotate(-15 -216.664 1025.8)" fill="#D9D9D9" d="M-216.664 1025.8h2025v2.702h-2025z"/>
            <path transform="rotate(-15 -202.023 1047.31)" fill="#D9D9D9" d="M-202.023 1047.31h2025v2.702h-2025z"/>
            <path transform="rotate(-15 -187.387 1068.82)" fill="#D9D9D9" d="M-187.387 1068.82h2025v2.702h-2025z"/>
            <path transform="rotate(-15 -172.75 1090.33)" fill="#D9D9D9" d="M-172.75 1090.33h2025v2.702h-2025z"/>
            <path transform="rotate(-15 -158.109 1111.85)" fill="#D9D9D9" d="M-158.109 1111.85h2025v2.702h-2025z"/>
            <path transform="rotate(-15 -143.473 1133.36)" fill="#D9D9D9" d="M-143.473 1133.36h2025v2.702h-2025z"/>
        </mask>
        <g mask="url(#j5top7a0sc)">
            <rect opacity=".3" x="-691" y="978.994" width="1384" height="218" rx="109" transform="rotate(-45 -691 978.994)" fill="url(#i2ufer75jd)"/>
        </g>
        <circle opacity=".5" cx="1626.5" cy="852.5" r="160.5" fill="url(#fd1hoc315e)" fill-opacity=".6"/>
        <path fill-rule="evenodd" clip-rule="evenodd" d="M1504 610a4 4 0 1 1-8 0 4 4 0 0 1 8 0zm0 46a4 4 0 1 1-8 0 4 4 0 0 1 8 0zm-4 50a4 4 0 1 0 0-8 4 4 0 0 0 0 8zm4 42a4 4 0 1 1-8 0 4 4 0 0 1 8 0zm-4 50a4 4 0 1 0 0-8 4 4 0 0 0 0 8zm4 42a4 4 0 1 1-8 0 4 4 0 0 1 8 0zm-4 50a4 4 0 1 0 0-8 4 4 0 0 0 0 8zm50-280a4 4 0 1 1-8 0 4 4 0 0 1 8 0zm88 4a4 4 0 1 0 0-8 4 4 0 0 0 0 8zm-88 42a4 4 0 1 1-8 0 4 4 0 0 1 8 0zm88 4a4 4 0 1 0 0-8 4 4 0 0 0 0 8zm-88 42a4 4 0 1 1-8 0 4 4 0 0 1 8 0zm88 4a4 4 0 1 0 0-8 4 4 0 0 0 0 8zm-88 42a4 4 0 1 1-8 0 4 4 0 0 1 8 0zm88 4a4 4 0 1 0 0-8 4 4 0 0 0 0 8zm-88 42a4 4 0 1 1-8 0 4 4 0 0 1 8 0zm88 4a4 4 0 1 0 0-8 4 4 0 0 0 0 8zm-88 42a4 4 0 1 1-8 0 4 4 0 0 1 8 0zm88 4a4 4 0 1 0 0-8 4 4 0 0 0 0 8zm-88 42a4 4 0 1 1-8 0 4 4 0 0 1 8 0zm88 4a4 4 0 1 0 0-8 4 4 0 0 0 0 8zm-42-280a4 4 0 1 1-8 0 4 4 0 0 1 8 0zm88 4a4 4 0 1 0 0-8 4 4 0 0 0 0 8zm-88 42a4 4 0 1 1-8 0 4 4 0 0 1 8 0zm88 4a4 4 0 1 0 0-8 4 4 0 0 0 0 8zm-88 42a4 4 0 1 1-8 0 4 4 0 0 1 8 0zm88 4a4 4 0 1 0 0-8 4 4 0 0 0 0 8zm-88 42a4 4 0 1 1-8 0 4 4 0 0 1 8 0zm88 4a4 4 0 1 0 0-8 4 4 0 0 0 0 8zm-88 42a4 4 0 1 1-8 0 4 4 0 0 1 8 0zm88 4a4 4 0 1 0 0-8 4 4 0 0 0 0 8zm-88 42a4 4 0 1 1-8 0 4 4 0 0 1 8 0zm88 4a4 4 0 1 0 0-8 4 4 0 0 0 0 8zm-88 42a4 4 0 1 1-8 0 4 4 0 0 1 8 0zm88 4a4 4 0 1 0 0-8 4 4 0 0 0 0 8z" fill="#fff" fill-opacity=".4"/>
    </g>
    <defs>
        <linearGradient id="aejw6rlavb" x1="2562.39" y1="-458.835" x2="2127.52" y2="-42.701" gradientUnits="userSpaceOnUse">
            <stop offset=".023" stop-color="#fff" stop-opacity=".42"/>
            <stop offset=".804" stop-color="#fff" stop-opacity="0"/>
        </linearGradient>
        <linearGradient id="i2ufer75jd" x1="564.564" y1="1101.09" x2="-38.324" y2="1066.4" gradientUnits="userSpaceOnUse">
            <stop offset=".057" stop-color="#fff"/>
            <stop offset=".942" stop-color="#fff" stop-opacity="0"/>
        </linearGradient>
        <linearGradient id="fd1hoc315e" x1="1547.5" y1="692" x2="1679.5" y2="978.5" gradientUnits="userSpaceOnUse">
            <stop stop-color="#fff" stop-opacity="0"/>
            <stop offset="1" stop-color="#fff"/>
        </linearGradient>
    </defs>
</svg>
