<svg width="29" height="28" viewBox="0 0 29 28" fill="none" xmlns="http://www.w3.org/2000/svg">
<path d="M14.1663 22.3333C9.56384 22.3333 5.83301 18.6025 5.83301 14C5.83301 9.39746 9.56384 5.66663 14.1663 5.66663C18.7688 5.66663 22.4997 9.39746 22.4997 14C22.4997 18.6025 18.7688 22.3333 14.1663 22.3333ZM14.1663 20.6666C15.9345 20.6666 17.6301 19.9642 18.8804 18.714C20.1306 17.4638 20.833 15.7681 20.833 14C20.833 12.2318 20.1306 10.5362 18.8804 9.28591C17.6301 8.03567 15.9345 7.33329 14.1663 7.33329C12.3982 7.33329 10.7025 8.03567 9.4523 9.28591C8.20205 10.5362 7.49967 12.2318 7.49967 14C7.49967 15.7681 8.20205 17.4638 9.4523 18.714C10.7025 19.9642 12.3982 20.6666 14.1663 20.6666V20.6666ZM13.018 11.0125L17.0838 13.7225C17.1296 13.7529 17.1671 13.7941 17.193 13.8426C17.2189 13.891 17.2325 13.945 17.2325 14C17.2325 14.0549 17.2189 14.109 17.193 14.1574C17.1671 14.2058 17.1296 14.247 17.0838 14.2775L13.0172 16.9875C12.967 17.0207 12.9088 17.0397 12.8487 17.0426C12.7886 17.0454 12.7289 17.0319 12.6758 17.0036C12.6228 16.9752 12.5784 16.933 12.5474 16.8815C12.5164 16.8299 12.4999 16.771 12.4997 16.7108V11.2891C12.4998 11.2288 12.5162 11.1697 12.5473 11.118C12.5784 11.0664 12.6229 11.0241 12.676 10.9957C12.7292 10.9673 12.7891 10.9539 12.8493 10.9568C12.9096 10.9598 12.9679 10.979 13.018 11.0125V11.0125Z" fill="#337BF2"/>
</svg>
