<svg width="24" height="24" viewBox="0 0 24 24" fill="none" xmlns="http://www.w3.org/2000/svg">
    <path fill-rule="evenodd" clip-rule="evenodd" d="M6 8a2 2 0 1 0 4 0 2 2 0 0 0-4 0zm6 0c0 1.12-.46 2.13-1.2 2.857A4.995 4.995 0 0 1 13 15v4a1 1 0 1 1-2 0v-4a3 3 0 1 0-6 0v4a1 1 0 1 1-2 0v-4c0-1.724.873-3.244 2.2-4.143A4 4 0 1 1 12 8zM18.84 5c-.53 0-.96.392-.96.875v5.25c0 .483.43.875.96.875s.96-.392.96-.875v-5.25c0-.483-.43-.875-.96-.875zm2.24 3.208c0-.483.43-.875.96-.875s.96.392.96.875v2.917c0 .483-.43.875-.96.875s-.96-.392-.96-.875V8.208zm-5.12.292c-.53 0-.96.392-.96.875v1.75c0 .483.43.875.96.875s.96-.392.96-.875v-1.75c0-.483-.43-.875-.96-.875z" fill="#fff"/>
</svg>
