<svg width="24" height="24" viewBox="0 0 24 24" fill="none" xmlns="http://www.w3.org/2000/svg">
    <path fill-rule="evenodd" clip-rule="evenodd" d="M12 22C6.477 22 2 17.523 2 12S6.477 2 12 2s10 4.477 10 10-4.477 10-10 10zm0-18a8 8 0 0 0-5 14.245v-.388c0-1.684.858-3.169 2.16-4.04a4 4 0 1 1 5.68 0 4.852 4.852 0 0 1 2.16 4.04v.388A8 8 0 0 0 12 4zm3 15.419v-1.562A2.857 2.857 0 0 0 12.143 15h-.286A2.857 2.857 0 0 0 9 17.857v1.562c.926.375 1.94.581 3 .581s2.074-.206 3-.581zM12 13a2 2 0 1 0 0-4 2 2 0 0 0 0 4z" fill="#fff"/>
</svg>
