<svg width="121" height="120" viewBox="0 0 121 120" fill="none" xmlns="http://www.w3.org/2000/svg">
    <g clip-path="url(#2dmqnd16ha)">
        <path fill-rule="evenodd" clip-rule="evenodd" d="M60.5 120c33.137 0 60-26.863 60-60S93.637 0 60.5 0c-14.867 0-20.518 17.832-31 26.787C16.619 37.792.5 41.73.5 60c0 33.137 26.863 60 60 60z" fill="#EEF0F6"/>
        <g filter="url(#gcedxyf63b)">
            <path fill-rule="evenodd" clip-rule="evenodd" d="M64.5 101c19.33 0 35-13.208 35-29.5S83.83 42 64.5 42c-8.672 0-11.969 8.767-18.083 13.17C38.903 60.58 29.5 62.517 29.5 71.5c0 16.292 15.67 29.5 35 29.5z" fill="#E1E5EF"/>
        </g>
        <path fill-rule="evenodd" clip-rule="evenodd" d="M83.441 59H65.56C60.004 59 55.5 63.476 55.5 68.997v4.871c0 5.521 4.504 9.997 10.059 9.997h18.879l5.779 4.685a2.02 2.02 0 0 0 2.83-.286c.293-.356.453-.803.453-1.263V68.997C93.5 63.476 88.996 59 83.441 59z" fill="#2E569B"/>
        <path fill-rule="evenodd" clip-rule="evenodd" d="M41.661 39h32.678c7.82 0 14.161 6.408 14.161 14.314v12.864c0 7.905-6.34 14.314-14.161 14.314H42.047l-9.186 7.742a3.244 3.244 0 0 1-4.603-.422 3.325 3.325 0 0 1-.758-2.115V53.314C27.5 45.408 33.84 39 41.661 39z" fill="#fff"/>
    </g>
    <defs>
        <clipPath id="2dmqnd16ha">
            <path fill="#fff" transform="translate(.5)" d="M0 0h120v120H0z"/>
        </clipPath>
        <filter id="gcedxyf63b" x="13" y="25.5" width="103" height="92" filterUnits="userSpaceOnUse" color-interpolation-filters="sRGB">
            <feFlood flood-opacity="0" result="BackgroundImageFix"/>
            <feBlend in="SourceGraphic" in2="BackgroundImageFix" result="shape"/>
            <feGaussianBlur stdDeviation="8.25" result="effect1_foregroundBlur_799_42741"/>
        </filter>
    </defs>
</svg>
