<svg width="20" height="20" viewBox="0 0 20 20" fill="none" xmlns="http://www.w3.org/2000/svg">
    <path d="M7.93 3c.963 0 1.862.247 2.695.742a5.029 5.029 0 0 1 1.953 1.953c.495.834.742 1.745.742 2.735 0 1.328-.43 2.5-1.289 3.515l.235.235h.664l4.14 4.14-1.25 1.25-4.14-4.14v-.664l-.235-.235a5.282 5.282 0 0 1-3.515 1.29c-.99 0-1.901-.235-2.735-.704a5.617 5.617 0 0 1-1.992-1.992A5.408 5.408 0 0 1 2.5 8.43c0-.99.234-1.901.703-2.735a5.31 5.31 0 0 1 1.992-1.953A5.258 5.258 0 0 1 7.93 3zm0 1.68c-1.042 0-1.927.364-2.657 1.093-.729.73-1.093 1.615-1.093 2.657 0 1.041.364 1.927 1.093 2.656.73.73 1.615 1.094 2.657 1.094 1.041 0 1.927-.365 2.656-1.094.73-.73 1.094-1.615 1.094-2.656 0-1.042-.365-1.927-1.094-2.657C9.856 5.044 8.97 4.68 7.93 4.68z" fill="#666"/>
</svg>
