<svg width="120" height="120" viewBox="0 0 120 120" fill="none" xmlns="http://www.w3.org/2000/svg">
    <g clip-path="url(#ap222ul9wa)">
        <path fill-rule="evenodd" clip-rule="evenodd" d="M60 120c33.137 0 60-26.863 60-60S93.137 0 60 0C45.133 0 39.482 17.832 29 26.787 16.119 37.792 0 41.73 0 60c0 33.137 26.863 60 60 60z" fill="#EEF0F6"/>
        <g filter="url(#ak965odnjb)">
            <path d="M92 40H40c-1.657 0-3 1.148-3 2.565v53.87C37 97.85 38.343 99 40 99h52c1.657 0 3-1.148 3-2.565v-53.87C95 41.15 93.657 40 92 40z" fill="#fff"/>
            <path d="M92 40H40c-1.657 0-3 1.148-3 2.565v53.87C37 97.85 38.343 99 40 99h52c1.657 0 3-1.148 3-2.565v-53.87C95 41.15 93.657 40 92 40z" fill="#E1E5EF"/>
        </g>
        <path d="M35 40a8 8 0 0 1 8-8h38a8 8 0 0 1 8 8v43a8 8 0 0 1-8 8H43a8 8 0 0 1-8-8V40z" fill="#fff"/>
        <path fill-rule="evenodd" clip-rule="evenodd" d="M84.66 87.868a2.5 2.5 0 0 0 .209-3.529l-8-9a2.5 2.5 0 0 0-3.737 3.322l8 9a2.5 2.5 0 0 0 3.529.207z" fill="#2E569B"/>
        <path fill-rule="evenodd" clip-rule="evenodd" d="M66 54.5c-5.799 0-10.5 4.701-10.5 10.5S60.201 75.5 66 75.5 76.5 70.799 76.5 65 71.799 54.5 66 54.5zM50.5 65c0-8.56 6.94-15.5 15.5-15.5 8.56 0 15.5 6.94 15.5 15.5 0 8.56-6.94 15.5-15.5 15.5-8.56 0-15.5-6.94-15.5-15.5z" fill="#2E569B"/>
    </g>
    <defs>
        <clipPath id="ap222ul9wa">
            <path fill="#fff" d="M0 0h120v120H0z"/>
        </clipPath>
        <filter id="ak965odnjb" x="20.5" y="23.5" width="91" height="92" filterUnits="userSpaceOnUse" color-interpolation-filters="sRGB">
            <feFlood flood-opacity="0" result="BackgroundImageFix"/>
            <feBlend in="SourceGraphic" in2="BackgroundImageFix" result="shape"/>
            <feGaussianBlur stdDeviation="8.25" result="effect1_foregroundBlur_287_30942"/>
        </filter>
    </defs>
</svg>
