<svg width="24" height="24" viewBox="0 0 24 24" fill="none" xmlns="http://www.w3.org/2000/svg">
    <path fill-rule="evenodd" clip-rule="evenodd" d="M9.5 2a1 1 0 0 0-.961.725l-.76 2.662L5.14 5.01a1 1 0 0 0-1.06.596l-1.5 3.5a1 1 0 0 0 .212 1.101L4.586 12l-1.793 1.793a1 1 0 0 0-.161 1.203l2 3.5a1 1 0 0 0 1.032.49l2.12-.353.755 2.642A1 1 0 0 0 9.5 22h5a1 1 0 0 0 .962-.725l.754-2.642 2.12.353a1 1 0 0 0 1.032-.49l2-3.5a1 1 0 0 0-.16-1.203L19.413 12l1.793-1.793a1 1 0 0 0 .212-1.1l-1.5-3.5a1 1 0 0 0-1.06-.597l-2.637.377-.76-2.662A1 1 0 0 0 14.5 2h-5zm-.038 4.775L10.254 4h3.492l.793 2.775a1 1 0 0 0 1.102.715l2.742-.392.931 2.174-2.021 2.02a1 1 0 0 0 0 1.415l1.96 1.96-1.276 2.232-2.313-.385a1 1 0 0 0-1.125.711L13.746 20h-3.492l-.792-2.775a1 1 0 0 0-1.126-.711l-2.313.385-1.276-2.232 1.96-1.96a1 1 0 0 0 0-1.414L4.686 9.272l.931-2.174 2.742.392a1 1 0 0 0 1.103-.715zM12 14a2 2 0 1 1 0-4 2 2 0 0 1 0 4zm-4-2a4 4 0 1 1 8 0 4 4 0 0 1-8 0z" fill="#fff"/>
</svg>
