<svg width="240" height="120" viewBox="0 0 240 120" fill="none" xmlns="http://www.w3.org/2000/svg">
    <path fill-rule="evenodd" clip-rule="evenodd" d="M119 120c33.137 0 60-26.863 60-60S152.137 0 119 0c-14.867 0-20.518 17.832-31 26.787C75.119 37.792 59 41.73 59 60c0 33.137 26.863 60 60 60z" fill="#EEF0F6"/>
    <g filter="url(#m2anz95fea)">
        <path d="M156.786 29H19.214C15.782 29 13 32.198 13 36.143v39.714C13 79.802 15.782 83 19.214 83h137.572c3.432 0 6.214-3.198 6.214-7.143V36.143c0-3.945-2.782-7.143-6.214-7.143z" fill="#fff"/>
        <path d="M95.8 62H34.2c-2.32 0-4.2 2.015-4.2 4.5s1.88 4.5 4.2 4.5h61.6c2.319 0 4.2-2.015 4.2-4.5S98.118 62 95.8 62zM70.78 41H34.219C31.888 41 30 43.015 30 45.5s1.89 4.5 4.22 4.5H70.78c2.33 0 4.218-2.015 4.218-4.5S73.111 41 70.781 41z" fill="#E1E4EC"/>
    </g>
    <rect x="114" y="40" width="32" height="32" rx="4" fill="#337BF2"/>
    <path d="M128.845 61.681a6.798 6.798 0 0 0 4.187-1.444L136.791 64 138 62.79l-3.76-3.764a6.845 6.845 0 0 0-3.951-10.87 6.83 6.83 0 0 0-7.632 3.757 6.852 6.852 0 0 0 1.933 8.29 6.831 6.831 0 0 0 4.255 1.478zm0-11.985a5.13 5.13 0 0 1 4.743 3.173 5.14 5.14 0 0 1-3.742 7.008 5.128 5.128 0 0 1-5.271-2.186 5.144 5.144 0 0 1 .639-6.49 5.133 5.133 0 0 1 3.631-1.505z" fill="#fff"/>
    <path d="M130.622 80.572A6.287 6.287 0 1 0 130.621 68a6.287 6.287 0 0 0 .001 12.573z" fill="#DFEAFB"/>
    <path d="M135.534 101.153c-1.006 0-1.945 0-2.8-.054a5.736 5.736 0 0 1-4.883-3.456l-5.305-10.483a2.262 2.262 0 0 1 .229-3.18 2.046 2.046 0 0 1 1.301-.45 2.413 2.413 0 0 1 1.807.897l2.409 3.288.036.042v-12.49a2.334 2.334 0 0 1 2.337-2.337 2.335 2.335 0 0 1 2.336 2.337v8.172a2.168 2.168 0 0 1 .561-1.662 2.16 2.16 0 0 1 1.604-.707 2.173 2.173 0 0 1 2.165 2.369v1.704a2.184 2.184 0 0 1 .561-1.662 2.167 2.167 0 0 1 2.481-.523 2.18 2.18 0 0 1 1.183 1.295c.097.286.132.589.105.89v1.312a2.184 2.184 0 0 1 .561-1.662 2.167 2.167 0 0 1 2.481-.523 2.18 2.18 0 0 1 1.183 1.295c.097.286.132.59.105.89v7.967c-.043 2.45-1.15 6.582-5.046 6.582-.283.012-2.68.151-5.406.151l-.005-.002z" fill="#2E569B" stroke="#fff"/>
    <defs>
        <filter id="m2anz95fea" x="7" y="27" width="162" height="66" filterUnits="userSpaceOnUse" color-interpolation-filters="sRGB">
            <feFlood flood-opacity="0" result="BackgroundImageFix"/>
            <feColorMatrix in="SourceAlpha" values="0 0 0 0 0 0 0 0 0 0 0 0 0 0 0 0 0 0 127 0" result="hardAlpha"/>
            <feOffset dy="4"/>
            <feGaussianBlur stdDeviation="3"/>
            <feColorMatrix values="0 0 0 0 0 0 0 0 0 0 0 0 0 0 0 0 0 0 0.08 0"/>
            <feBlend in2="BackgroundImageFix" result="effect1_dropShadow_814_42715"/>
            <feBlend in="SourceGraphic" in2="effect1_dropShadow_814_42715" result="shape"/>
        </filter>
    </defs>
</svg>
